<?xml version="1.0" encoding="UTF-8"?>
<svg id="Layer_1" data-name="Layer 1" xmlns="http://www.w3.org/2000/svg" version="1.1" viewBox="0 0 800 800">
  <defs>
    <style>
      .cls-1 {
        fill: #000;
        stroke-width: 0px;
      }
    </style>
  </defs>
  <path class="cls-1" d="M378.6,73.2c-1.4.1-5.9.6-9.9.9-92.9,8.4-179.9,58.5-235,135.5-30.7,42.8-50.3,91.4-57.7,142.9-2.6,18-2.9,23.3-2.9,47.6s.3,29.7,2.9,47.6c17.8,122.8,105.2,226,223.7,264.2,21.2,6.8,43.6,11.5,69,14.3,9.9,1.1,52.7,1.1,62.7,0,43.9-4.9,81.1-15.7,117.8-34.5,5.6-2.9,6.7-3.6,5.9-4.3-.5-.4-24.5-32.5-53.3-71.4l-52.3-70.6-65.5-97c-36.1-53.3-65.7-96.9-66-96.9-.3,0-.5,43-.6,95.6-.2,92.1-.3,95.8-1.4,98-1.7,3.1-2.9,4.4-5.6,5.8-2,1-3.8,1.2-13.5,1.2h-11.1l-2.9-1.9c-1.9-1.2-3.3-2.8-4.3-4.7l-1.3-2.9v-128.2c.1,0,.3-128.2.3-128.2l2-2.5c1-1.3,3.2-3.1,4.7-3.9,2.6-1.3,3.6-1.4,14.7-1.4s15.2.5,18.6,4.2c1,1,36.4,54.5,78.9,118.8,42.4,64.4,100.5,152.3,129,195.4l51.8,78.4,2.6-1.7c23.2-15.1,47.8-36.6,67.2-58.9,41.4-47.5,68-105.4,77-167.2,2.6-18,2.9-23.3,2.9-47.6s-.3-29.7-2.9-47.6c-17.8-122.8-105.2-226-223.7-264.2-20.9-6.8-43.2-11.4-68.1-14.3-6.1-.6-48.4-1.3-53.7-.8h0ZM512.5,270.9c3.1,1.5,5.6,4.5,6.5,7.5.5,1.7.6,37.2.5,117.3l-.2,114.9-20.3-31.1-20.3-31.1v-83.5c0-54,.3-84.4.6-85.8,1-3.6,3.3-6.4,6.3-8.1,2.6-1.3,3.6-1.5,13.6-1.5s11.1.1,13.2,1.3Z"/>
</svg>